<?xml version="1.0" encoding="UTF-8"?>
<svg xmlns="http://www.w3.org/2000/svg" viewBox="0 0 4800 4800" width="512" height="512">
  <g transform="translate(300,3990) scale(1,-1)">
    <path d="M3005 3170 c-246 -22 -456 -106 -645 -258 -44 -35 -99 -86 -122 -113 -22 -27 -45 -49 -50 -49 -5 0 -43 24 -86 54 -319 223 -703 284 -1057 169 -44 -14 -113 -41 -154 -60 -40 -18 -78 -33 -84 -33 -6 0 -129 47 -274 105 -145 58 -274 105 -287 105 -49 0 -51 -23 -12 -107 48 -101 117 -192 221 -292 47 -45 85 -85 85 -89 0 -5 -25 -46 -54 -91 -65 -98 -108 -198 -144 -330 -23 -88 -26 -113 -26 -301 -1 -162 3 -223 17 -290 57 -266 193 -535 379 -749 245 -283 642 -506 1043 -586 233 -46 350 -58 570 -59 206 0 297 9 352 36 46 23 38 36 -35 58 -83 24 -178 65 -187 80 -13 21 24 21 126 -1 132 -28 346 -31 457 -6 128 28 214 79 186 107 -5 5 -65 21 -134 35 -135 29 -190 48 -190 65 0 8 38 9 133 4 287 -14 530 51 635 170 36 41 39 57 16 77 -13 11 -33 10 -117 -4 -225 -38 -397 -45 -593 -26 -136 13 -264 43 -469 109 -339 111 -338 110 -710 120 -275 7 -332 11 -404 29 -317 80 -568 328 -646 636 -24 92 -24 248 -2 335 23 88 87 216 142 284 145 178 411 281 635 247 161 -25 276 -82 399 -197 88 -83 141 -166 176 -278 50 -157 42 -314 -27 -501 -20 -55 -27 -90 -23 -112 12 -67 149 -218 287 -316 431 -308 1126 -343 1517 -78 154 105 332 315 317 375 -4 15 -48 55 -127 112 -180 133 -199 144 -239 144 -43 0 -60 -12 -93 -65 -74 -122 -198 -215 -348 -266 -81 -27 -104 -30 -208 -30 -91 0 -131 4 -186 21 -119 37 -202 87 -291 175 -138 137 -202 300 -191 494 18 338 283 613 613 634 243 15 460 -90 613 -297 45 -61 66 -76 107 -76 32 0 408 181 441 212 13 12 23 29 23 38 0 14 -103 90 -144 106 -26 10 -19 31 21 61 102 78 265 321 248 372 -12 40 -40 34 -272 -60 -126 -50 -236 -94 -245 -96 -10 -3 -50 17 -94 46 -234 157 -507 226 -789 201z" fill="currentColor"/>
  </g>
</svg>
